<svg width="7" height="12" viewBox="0 0 7 12" fill="none" xmlns="http://www.w3.org/2000/svg">
<path d="M5.52522 11.8337C5.40072 11.8341 5.27771 11.8067 5.16523 11.7533C5.05275 11.7 4.95365 11.6221 4.87522 11.5254L0.850218 6.52539C0.72765 6.37628 0.660645 6.18925 0.660645 5.99623C0.660645 5.80321 0.72765 5.61617 0.850218 5.46706L5.01688 0.467059C5.15833 0.296879 5.36159 0.189858 5.58195 0.169542C5.8023 0.149225 6.0217 0.217277 6.19188 0.358726C6.36206 0.500175 6.46908 0.703434 6.4894 0.923789C6.50972 1.14414 6.44167 1.36355 6.30022 1.53373L2.57522 6.00039L6.17522 10.4671C6.27712 10.5894 6.34185 10.7383 6.36175 10.8963C6.38165 11.0542 6.35589 11.2146 6.28751 11.3584C6.21913 11.5021 6.11099 11.6233 5.9759 11.7076C5.84081 11.7918 5.68441 11.8356 5.52522 11.8337Z" fill="#56295A"/>
</svg>
