<svg width="6" height="9" viewBox="0 0 6 9" fill="none" xmlns="http://www.w3.org/2000/svg">
<path d="M4.64403 8.8753C4.55066 8.87561 4.45841 8.85501 4.37404 8.81499C4.28968 8.77497 4.21536 8.71656 4.15654 8.64405L1.13779 4.89405C1.04586 4.78221 0.995605 4.64194 0.995605 4.49717C0.995605 4.3524 1.04586 4.21213 1.13779 4.10029L4.26279 0.350294C4.36887 0.222659 4.52132 0.142394 4.68658 0.127156C4.85185 0.111919 5.0164 0.162958 5.14403 0.269044C5.27167 0.375131 5.35194 0.527576 5.36717 0.692842C5.38241 0.858109 5.33137 1.02266 5.22529 1.15029L2.43154 4.5003L5.13153 7.8503C5.20796 7.94204 5.25651 8.05375 5.27143 8.17222C5.28636 8.29069 5.26704 8.41095 5.21575 8.51878C5.16447 8.62661 5.08337 8.71749 4.98205 8.78067C4.88073 8.84385 4.76343 8.87669 4.64403 8.8753Z" fill="#F6A21E"/>
</svg>
